HIERARCHY
ROOT Hips
{
	OFFSET	0.00	0.00	0.00
	CHANNELS 6 Xposition Yposition Zposition Zrotation Xrotation Yrotation
	JOINT LeftUpLeg
	{
		OFFSET	 0.126116	-0.014019	-0.065224
		CHANNELS 3 Zrotation Xrotation Yrotation
		JOINT LeftLeg
		{
			OFFSET	 0.000000	 0.000000	 0.569914
			CHANNELS 3 Zrotation Xrotation Yrotation
			JOINT LeftFoot
			{
				OFFSET	 0.000000	 0.000000	 0.544423
				CHANNELS 3 Zrotation Xrotation Yrotation
				JOINT LeftToeBase
				{
					OFFSET	 0.000000	 0.000000	 0.207117
					CHANNELS 3 Zrotation Xrotation Yrotation
					End Site
					{
						OFFSET	 0.000000	 0.000000	 0.207117
					}
				}
			}
		}
	}
	JOINT RightUpLeg
	{
		OFFSET	-0.124023	-0.008373	-0.065224
		CHANNELS 3 Zrotation Xrotation Yrotation
		JOINT RightLeg
		{
			OFFSET	 0.000000	 0.000000	 0.570047
			CHANNELS 3 Zrotation Xrotation Yrotation
			JOINT RightFoot
			{
				OFFSET	 0.000000	 0.000000	 0.544354
				CHANNELS 3 Zrotation Xrotation Yrotation
				JOINT RightToeBase
				{
					OFFSET	 0.000000	 0.000000	 0.207540
					CHANNELS 3 Zrotation Xrotation Yrotation
					End Site
					{
						OFFSET	 0.000000	 0.000000	 0.207540
					}
				}
			}
		}
	}
	JOINT Spine
	{
		OFFSET	 0.000184	-0.007763	 0.117403
		CHANNELS 3 Zrotation Xrotation Yrotation
		JOINT Spine1
		{
			OFFSET	 0.000000	 0.000000	 0.137269
			CHANNELS 3 Zrotation Xrotation Yrotation
			JOINT Spine2
			{
				OFFSET	 0.000000	 0.000000	 0.156879
				CHANNELS 3 Zrotation Xrotation Yrotation
				JOINT LeftShoulder
				{
					OFFSET	 0.080501	-0.002496	 0.160144
					CHANNELS 3 Zrotation Xrotation Yrotation
					JOINT LeftArm
					{
						OFFSET	 0.000000	 0.000000	 0.164363
						CHANNELS 3 Zrotation Xrotation Yrotation
						JOINT LeftForeArm
						{
							OFFSET	 0.000000	 0.000000	 0.364576
							CHANNELS 3 Zrotation Xrotation Yrotation
							JOINT LeftHand
							{
								OFFSET	 0.000000	 0.000000	 0.360812
								CHANNELS 3 Zrotation Xrotation Yrotation
								JOINT LeftHandIndex1
								{
									OFFSET	 0.000000	 0.000000	 0.086006
									CHANNELS 3 Zrotation Xrotation Yrotation
									JOINT LeftHandIndex2
									{
										OFFSET	 0.000000	 0.000000	 0.047237
										CHANNELS 3 Zrotation Xrotation Yrotation
										JOINT LeftHandIndex3
										{
											OFFSET	-0.004284	-0.000551	 0.038165
											CHANNELS 3 Zrotation Xrotation Yrotation
											End Site
											{
												OFFSET	-0.004284	-0.000551	 0.038165
											}
										}
									}
								}
							}
						}
					}
				}
				JOINT Neck
				{
					OFFSET	 0.000000	 0.000000	 0.176489
					CHANNELS 3 Zrotation Xrotation Yrotation
					JOINT Head
					{
						OFFSET	 0.000000	-0.001747	 0.077940
						CHANNELS 3 Zrotation Xrotation Yrotation
						End Site
						{
							OFFSET	 0.000000	-0.001747	 0.077940
						}
					}
				}
				JOINT RightShoulder
				{
					OFFSET	-0.080363	 0.000306	 0.159706
					CHANNELS 3 Zrotation Xrotation Yrotation
					JOINT RightArm
					{
						OFFSET	 0.000000	 0.000000	 0.164196
						CHANNELS 3 Zrotation Xrotation Yrotation
						JOINT RightForeArm
						{
							OFFSET	 0.000000	 0.000000	 0.365611
							CHANNELS 3 Zrotation Xrotation Yrotation
							JOINT RightHand
							{
								OFFSET	 0.000000	 0.000000	 0.360648
								CHANNELS 3 Zrotation Xrotation Yrotation
								JOINT RightHandIndex1
								{
									OFFSET	 0.000000	 0.000000	 0.069977
									CHANNELS 3 Zrotation Xrotation Yrotation
									JOINT RightHandIndex2
									{
										OFFSET	 0.000000	 0.000000	 0.052305
										CHANNELS 3 Zrotation Xrotation Yrotation
										JOINT RightHandIndex3
										{
											OFFSET	 0.009002	-0.000782	 0.042196
											CHANNELS 3 Zrotation Xrotation Yrotation
											End Site
											{
												OFFSET	 0.009002	-0.000782	 0.042196
											}
										}
									}
								}
							}
						}
					}
				}
			}
		}
	}
}
MOTION
Frames:    10
Frame Time: 0.03333334
-0.631486	-0.163356	 1.250036	-159.745300	 3.975129	 8.529332	-20.165230	-5.841098	 171.975400	-9.006114	-32.354240	-3.788614	 150.740600	 88.590270	-156.031800	-2.385833	 28.452760	 0.000004	 51.728240	-43.373290	-169.226400	-26.203750	-57.310720	-12.968740	 40.579020	 42.401150	-45.915970	 2.384659	 28.388700	-0.000001	 28.825040	-12.702190	-16.666530	 46.446580	 24.867090	-4.785945	-14.762590	-3.962696	 4.917207	-91.776150	 78.527430	 180.000000	 23.084990	 52.709920	-31.157520	-11.909190	-2.366503	-56.136870	 5.943876	-2.854161	-4.418808	-4.131196	 21.524690	 0.986298	-5.167839	 0.733520	 3.519257	-1.378229	 35.397820	-2.634230	-13.967360	 16.402150	-7.933682	-28.069030	 2.781776	 5.603967	 89.782160	 78.291760	 179.994000	 0.424468	 68.963950	 2.285340	 0.804736	-0.883939	 15.594720	 119.877900	-35.880560	 0.252397	 5.715225	 19.176060	-3.692089	 5.027514	 0.245388	-9.378011	-2.350882	 35.473990	 5.254307
-0.630904	-0.162124	 1.250201	-159.950500	 3.864137	 8.445925	-18.496620	-5.482088	 171.859300	-8.730003	-31.599430	-3.563525	 138.089500	 85.410800	-143.893500	-2.385833	 28.452760	 0.000004	 50.577060	-43.563820	-169.562000	-22.450900	-57.998990	-9.832548	 49.779920	 48.330910	-50.579410	 2.384659	 28.388700	-0.000001	 28.469580	-14.648710	-17.411790	 46.804780	 28.202480	-6.828500	-14.570610	-5.372758	 5.444608	-91.776220	 78.527430	-180.000000	 22.835070	 52.619610	-31.051560	-11.530610	-2.770762	-55.940880	 6.344271	-2.620052	-4.575932	-4.131196	 21.524690	 0.986298	-5.167839	 0.733520	 3.519257	-1.378229	 35.397820	-2.634230	-14.016340	 16.228270	-7.741858	-28.064240	 2.752486	 5.256167	 89.782090	 78.303310	 179.992900	-0.367514	 68.828870	 4.122842	-0.178070	-0.618097	 13.849660	 119.320400	-32.566840	 0.935964	 5.715225	 19.176060	-3.692089	 5.027514	 0.245388	-9.378011	-2.350882	 35.473990	 5.254307
-0.627764	-0.159388	 1.250922	-161.835100	 4.825321	 8.849397	-15.603120	-6.076735	 170.950900	-7.139938	-31.256450	-2.697192	 149.618900	 81.879530	-156.778400	-2.385833	 28.452760	 0.000004	 49.368370	-44.691640	-169.301200	-18.316270	-57.195170	-6.243495	 56.482310	 53.165550	-53.974110	 2.384659	 28.388700	-0.000001	 30.114850	-15.058490	-17.803570	 46.426100	 28.184360	-4.316494	-14.564110	-4.756565	 4.457942	-91.776160	 78.527400	 180.000000	 22.696840	 52.275850	-30.777220	-10.804430	-3.583995	-55.936960	 7.076411	-2.169392	-4.888172	-4.131196	 21.524690	 0.986298	-5.167839	 0.733520	 3.519257	-1.378229	 35.397820	-2.634230	-13.947080	 16.753010	-7.752965	-27.932510	 2.425592	 5.161178	 89.782140	 78.312090	 179.992000	-1.966532	 68.332440	 8.661847	-2.189194	 0.641775	 8.326969	 115.832800	-31.657490	 1.737554	 5.715225	 19.176060	-3.692089	 5.027514	 0.245388	-9.378011	-2.350882	 35.473990	 5.254307
-0.621696	-0.153471	 1.250834	-161.943500	 5.447911	 6.657645	-14.248400	-5.308958	 172.810000	-4.998176	-27.912170	-1.426962	 136.388000	 74.512540	-145.328700	-2.385833	 28.452760	 0.000004	 54.891120	-42.249270	-165.572600	-17.926250	-57.996520	-5.966499	 73.359200	 55.898850	-67.310680	 2.384659	 28.388700	-0.000001	 30.585680	-15.559650	-14.810070	 46.596670	 30.429430	-6.384847	-14.087050	-6.791225	 4.387786	-91.776180	 78.527400	-180.000000	 22.859870	 52.254000	-30.957640	-10.304360	-3.998567	-55.037620	 7.625462	-1.766466	-5.146144	-4.131196	 21.524690	 0.986298	-5.167839	 0.733520	 3.519257	-1.378229	 35.397820	-2.634230	-13.544240	 17.156440	-8.096773	-27.793690	 2.613346	 6.683757	 89.782150	 78.319710	 179.991700	-5.147408	 68.017110	 11.898500	-3.302122	 0.632981	 8.332580	 113.817900	-31.321840	 3.683796	 5.715225	 19.176060	-3.692089	 5.027514	 0.245388	-9.378011	-2.350882	 35.473990	 5.254307
-0.611477	-0.145867	 1.249622	-162.089400	 4.070277	 5.298987	-15.336420	-2.010381	 174.619100	-3.203964	-25.219640	-0.533482	 132.993300	 74.604290	-143.421600	-2.385833	 28.452760	 0.000004	 55.323810	-39.179730	-166.360400	-17.136980	-57.581880	-5.270706	 76.079300	 59.246460	-67.525490	 2.384659	 28.388700	-0.000001	 31.638120	-10.757850	-12.546150	 45.713360	 26.396390	-6.660625	-13.478920	-6.645948	 6.104979	-91.776160	 78.527420	 180.000000	 23.431340	 51.749040	-30.803600	-10.012670	-4.306328	-55.000490	 8.067870	-1.384574	-5.383252	-4.131196	 21.524690	 0.986298	-5.167839	 0.733520	 3.519257	-1.378229	 35.397820	-2.634230	-12.910200	 17.038960	-9.048985	-27.818310	 3.074902	 8.917802	 89.782070	 78.314990	 179.993500	-9.837005	 67.762170	 16.390860	-2.908430	 0.638969	 8.341191	 113.811300	-38.211860	 9.447293	 5.715225	 19.176060	-3.692089	 5.027514	 0.245388	-9.378011	-2.350882	 35.473990	 5.254307
-0.596489	-0.132831	 1.249275	-161.725100	 4.562349	 7.317421	-8.381316	-1.907345	 170.460600	-8.420322	-25.538170	-2.798203	 111.417000	 78.077970	-118.523900	-2.385833	 28.452760	 0.000004	 55.599480	-38.732430	-168.298000	-17.125690	-55.300730	-5.124716	 80.130020	 59.468150	-70.573300	 2.384659	 28.388700	-0.000001	 30.301870	-13.258690	-14.634840	 46.334250	 27.614910	-7.508133	-13.348210	-6.308000	 5.992001	-91.776120	 78.527400	 179.999900	 24.379490	 51.231910	-31.782910	-9.943645	-4.259289	-54.318070	 7.981239	-1.178805	-5.518989	-4.131196	 21.524690	 0.986298	-5.167839	 0.733520	 3.519257	-1.378229	 35.397820	-2.634230	-12.685610	 17.399870	-9.273991	-27.792070	 2.441734	 9.285266	 89.782160	 78.313910	 179.993100	-11.389670	 67.149270	 18.404900	 0.601898	 0.467600	 9.306568	 120.185200	-44.704080	 18.090130	 5.715225	 19.176060	-3.692089	 5.027514	 0.245388	-9.378011	-2.350882	 35.473990	 5.254307
-0.579106	-0.118702	 1.248689	-160.447200	 4.697987	 8.546090	-4.468882	-1.410135	 167.399600	-9.050813	-25.359180	-3.053066	 48.229970	 78.275670	-55.775790	-2.385833	 28.452760	 0.000004	 54.343660	-37.688860	-170.699400	-17.101110	-53.093190	-4.965238	 80.057890	 60.891120	-69.726890	 2.384659	 28.388700	-0.000001	 28.842280	-13.136640	-15.400850	 46.543970	 26.156120	-7.818613	-13.381860	-5.581707	 6.259291	-91.776210	 78.527420	-180.000000	 25.700280	 50.594910	-32.781860	-10.256220	-3.830631	-53.741020	 6.995441	-1.376474	-5.432302	-4.131196	 21.524690	 0.986298	-5.167839	 0.733520	 3.519257	-1.378229	 35.397820	-2.634230	-13.065780	 17.676280	-8.110679	-27.459570	 2.224212	 8.715227	 89.782160	 78.302720	 179.994100	-11.391990	 67.223460	 16.484420	 1.805107	-0.608895	 15.018510	 126.949200	-52.547230	 26.502280	 5.715225	 19.176060	-3.692089	 5.027514	 0.245388	-9.378011	-2.350882	 35.473990	 5.254307
-0.558538	-0.101496	 1.247964	-158.999100	 4.185485	 7.132714	-3.016021	 2.136305	 167.842700	-7.286018	-21.081520	-1.923450	 14.560410	 66.537950	-23.060880	-2.385833	 28.452760	 0.000004	 53.384120	-34.869920	-172.040700	-17.194180	-52.334030	-4.989639	 82.724230	 62.355890	-71.082280	 2.384659	 28.388700	-0.000001	 28.442040	-11.251300	-13.919770	 46.495010	 26.017910	-9.602113	-13.762780	-6.718026	 7.438115	-91.776180	 78.527400	 180.000000	 27.211310	 49.348370	-33.600110	-10.947270	-2.995361	-52.876300	 5.940946	-1.765890	-5.188282	-4.131196	 21.524690	 0.986298	-5.167839	 0.733520	 3.519257	-1.378229	 35.397820	-2.634230	-14.170550	 17.734420	-6.959718	-27.722360	 2.102144	 7.277618	 89.782160	 78.299350	 179.995000	-8.913858	 67.451510	 13.881980	 1.909946	-1.176077	 18.028070	 132.880900	-57.923760	 31.031080	 5.715225	 19.176060	-3.692089	 5.027514	 0.245388	-9.378011	-2.350882	 35.473990	 5.254307
-0.537726	-0.082346	 1.248124	-157.719200	 4.665541	 5.912205	-4.796272	 5.842212	 168.997400	-3.259198	-15.813740	-0.356233	 6.047066	 54.425810	-18.092070	-2.385833	 28.452760	 0.000004	 52.723820	-33.268590	-172.523600	-16.747770	-51.706970	-4.595506	 94.879040	 60.704540	-82.305020	 2.384659	 28.388700	-0.000001	 27.270830	-13.359820	-14.316700	 46.952810	 30.685590	-11.519110	-14.662740	-8.326557	 7.391349	-91.776240	 78.527400	-180.000000	 27.863920	 48.505240	-34.283510	-10.916480	-2.838413	-51.404710	 6.801661	-1.526417	-5.243208	-4.131196	 21.524690	 0.986298	-5.167839	 0.733520	 3.519257	-1.378229	 35.397820	-2.634230	-14.892270	 17.566160	-8.835967	-29.238510	 0.934886	 6.727266	 89.782140	 78.310710	 179.992700	-4.388031	 67.494650	 10.426320	 1.352821	-1.878659	 20.937110	 130.578100	-58.406330	 23.563650	 5.715225	 19.176060	-3.692089	 5.027514	 0.245388	-9.378011	-2.350882	 35.473990	 5.254307
-0.512314	-0.060936	 1.246811	-157.435500	 2.551529	 4.706952	-10.560120	 14.057200	 172.359600	 1.658576	-9.113387	 0.572635	-9.176269	 41.483640	-2.996183	-2.385833	 28.452760	 0.000004	 49.155360	-30.491190	-176.171400	-17.740710	-49.626150	-5.221653	 88.325580	 64.082520	-74.846980	 2.384659	 28.388700	-0.000001	 27.962890	-7.652184	-14.530890	 45.398420	 26.991390	-10.344360	-15.639030	-8.212353	 9.459993	-91.776170	 78.527380	 180.000000	 28.768900	 48.253280	-33.490010	-10.197800	-3.400827	-50.595470	 7.745412	-1.176538	-5.464298	-4.131196	 21.524690	 0.986298	-5.167839	 0.733520	 3.519257	-1.378229	 35.397820	-2.634230	-16.551980	 16.805070	-8.290525	-30.303680	 0.761968	 4.353045	 89.782100	 78.300430	 179.994800	-0.228851	 67.470310	 6.519243	 0.087910	-3.002135	 24.410510	 129.157700	-65.626790	 20.255560	 5.715225	 19.176060	-3.692089	 5.027514	 0.245388	-9.378011	-2.350882	 35.473990	 5.254307
